<?xml version="1.0" encoding="utf-8"?>
<!-- Generator: Adobe Illustrator 19.0.0, SVG Export Plug-In . SVG Version: 6.00 Build 0)  -->
<svg version="1.1" id="Layer_1" xmlns="http://www.w3.org/2000/svg" xmlns:xlink="http://www.w3.org/1999/xlink" x="0px" y="0px"
	 viewBox="0 0 32.3 32.3" style="enable-background:new 0 0 32.3 32.3;" xml:space="preserve">
<style type="text/css">
	.st0{fill:#FFFFFF;}
</style>
<g id="XMLID_1_">
	<g>
		
			<rect id="XMLID_7_" x="15.8" y="9.1" transform="matrix(0.7071 0.7071 -0.7071 0.7071 16.201 -6.781)" class="st0" width="1" height="14.1"/>
	</g>
	<g>
		
			<rect id="XMLID_6_" x="9.2" y="15.7" transform="matrix(0.7071 0.7071 -0.7071 0.7071 16.201 -6.781)" class="st0" width="14.1" height="1"/>
	</g>
	<g id="XMLID_2_">
		<g>
			<path id="XMLID_3_" class="st0" d="M16.2,32.3C7.3,32.3,0,25.1,0,16.2C0,7.3,7.3,0,16.2,0s16.2,7.3,16.2,16.2
				C32.3,25.1,25.1,32.3,16.2,32.3z M16.2,1C7.8,1,1,7.8,1,16.2c0,8.4,6.8,15.2,15.2,15.2s15.2-6.8,15.2-15.2
				C31.3,7.8,24.5,1,16.2,1z"/>
		</g>
	</g>
</g>
</svg>
