<?xml version="1.0" encoding="utf-8"?>
<!-- Generator: Adobe Illustrator 19.0.0, SVG Export Plug-In . SVG Version: 6.00 Build 0)  -->
<svg version="1.1" id="Layer_1" xmlns="http://www.w3.org/2000/svg" xmlns:xlink="http://www.w3.org/1999/xlink" x="0px" y="0px"
	 viewBox="0 0 20.3 20.3" style="enable-background:new 0 0 20.3 20.3;" xml:space="preserve">
<style type="text/css">
	.st0{fill:#D7D7D7;}
</style>
<path id="XMLID_20_" class="st0" d="M15.2,7.9l0,0.3c0,3.3-2.5,7.1-7.1,7.1c-1.4,0-2.7-0.4-3.8-1.1c0.2,0,0.4,0,0.6,0
	c1.2,0,2.3-0.4,3.1-1.1c-1.1,0-2-0.7-2.3-1.7c0.2,0,0.3,0,0.5,0c0.2,0,0.5,0,0.7-0.1c-1.1-0.2-2-1.2-2-2.4v0
	c0.3,0.2,0.7,0.3,1.1,0.3C5.2,8.8,4.8,8,4.8,7.1c0-0.5,0.1-0.9,0.3-1.3c1.2,1.5,3.1,2.5,5.2,2.6c0-0.2-0.1-0.4-0.1-0.6
	c0-1.4,1.1-2.5,2.5-2.5c0.7,0,1.4,0.3,1.8,0.8c0.6-0.1,1.1-0.3,1.6-0.6C15.9,6.2,15.5,6.7,15,7c0.5-0.1,1-0.2,1.4-0.4
	C16.1,7.1,15.7,7.5,15.2,7.9 M10.2,0C4.6,0,0,4.6,0,10.2c0,5.6,4.5,10.2,10.2,10.2c5.6,0,10.2-4.6,10.2-10.2C20.3,4.5,15.8,0,10.2,0
	"/>
</svg>
