<?xml version="1.0" encoding="utf-8"?>
<!-- Generator: Adobe Illustrator 16.0.0, SVG Export Plug-In . SVG Version: 6.00 Build 0)  -->
<!DOCTYPE svg PUBLIC "-//W3C//DTD SVG 1.1//EN" "http://www.w3.org/Graphics/SVG/1.1/DTD/svg11.dtd">
<svg version="1.1" id="Capa_1" xmlns="http://www.w3.org/2000/svg" xmlns:xlink="http://www.w3.org/1999/xlink" x="0px" y="0px"
	 width="76.667px" height="65.333px" viewBox="0 0 76.667 65.333" enable-background="new 0 0 76.667 65.333" xml:space="preserve">
<rect x="-459.709" y="124.512" fill="#FFFFFF" width="299.016" height="192.734"/>
<path fill="#646464" d="M-322.72,35.448c6.296,0,11.418-5.122,11.418-11.417c0-6.296-5.122-11.418-11.418-11.418h-22.861v38.872
	l-30.059-38.886h-3.058l32.971,42.654h2.564v-40.22h20.442c4.962,0,8.999,4.037,8.999,8.999c0,4.962-4.037,8.999-8.999,8.999h-9.266
	l17.063,22.223h3.051l-15.207-19.804H-322.72z"/>
<path fill="#E1E1E1" d="M-246.053,35.448c6.296,0,11.417-5.122,11.417-11.417c0-6.296-5.121-11.418-11.417-11.418h-22.862v38.872
	l-30.059-38.886h-3.058l32.972,42.654h2.563v-40.22h20.443c4.962,0,8.998,4.037,8.998,8.999c0,4.962-4.036,8.999-8.998,8.999h-9.267
	l17.063,22.223h3.05l-15.206-19.804H-246.053z"/>
<path fill="#E0D4D7" d="M-169.387,35.448c6.296,0,11.418-5.122,11.418-11.417c0-6.296-5.122-11.418-11.418-11.418h-22.86v38.872
	l-30.06-38.886h-3.058l32.972,42.654h2.563v-40.22h20.442c4.963,0,9,4.037,9,8.999c0,4.962-4.037,8.999-9,8.999h-9.266
	l17.063,22.223h3.05l-15.207-19.804H-169.387z"/>
<path fill="#E6B32F" d="M-92.721,35.448c6.297,0,11.418-5.122,11.418-11.417c0-6.296-5.121-11.418-11.418-11.418h-22.861v38.872
	l-30.06-38.886h-3.057l32.971,42.654h2.565v-40.22h20.441c4.962,0,9,4.037,9,8.999c0,4.962-4.038,8.999-9,8.999h-9.266
	l17.063,22.223h3.05L-97.08,35.448H-92.721z"/>
<path fill="#58598E" d="M-16.053,35.448c6.295,0,11.416-5.122,11.416-11.417c0-6.296-5.121-11.418-11.416-11.418h-22.861v38.872
	l-30.059-38.886h-3.059l32.971,42.654h2.564v-40.22h20.443c4.961,0,8.998,4.037,8.998,8.999c0,4.962-4.037,8.999-8.998,8.999h-9.268
	l17.064,22.223h3.051l-15.207-19.804H-16.053z"/>
<path fill="#141E4E" d="M60.614,35.448c6.296,0,11.417-5.122,11.417-11.417c0-6.296-5.121-11.418-11.417-11.418H37.752v38.872
	L7.692,12.598H4.636l32.971,42.654h2.565v-40.22h20.442c4.961,0,8.999,4.037,8.999,8.999c0,4.962-4.038,8.999-8.999,8.999h-9.267
	l17.063,22.223h3.05L56.254,35.448H60.614z"/>
<g>
	<rect x="-360.955" y="177.095" fill="none" width="143.357" height="87.569"/>
	<path d="M-359.84,185.616l0.312-2.352h-0.983v-0.707h1.091l0.228-1.739h-1.032v-0.708h1.14l0.312-2.291h0.696l-0.3,2.291h1.247
		l0.312-2.291h0.708l-0.3,2.291h0.983v0.708h-1.091l-0.216,1.739h1.031v0.707h-1.139l-0.312,2.352h-0.719l0.312-2.352h-1.247
		l-0.312,2.352H-359.84z M-357.453,182.557l0.228-1.739h-1.248l-0.228,1.739H-357.453z"/>
	<path d="M-350.002,178.563c-0.216-0.012-0.492,0-0.792,0.048c-1.655,0.276-2.531,1.487-2.71,2.771h0.036
		c0.372-0.492,1.02-0.899,1.883-0.899c1.379,0,2.351,0.995,2.351,2.519c0,1.428-0.972,2.746-2.591,2.746
		c-1.667,0-2.758-1.295-2.758-3.322c0-1.535,0.552-2.746,1.319-3.514c0.647-0.635,1.511-1.031,2.495-1.15
		c0.312-0.049,0.576-0.061,0.768-0.061V178.563z M-350.302,183.061c0-1.115-0.636-1.787-1.607-1.787
		c-0.636,0-1.224,0.396-1.511,0.959c-0.072,0.12-0.12,0.275-0.12,0.468c0.024,1.283,0.612,2.231,1.715,2.231
		C-350.914,184.932-350.302,184.176-350.302,183.061z"/>
	<path d="M-345.034,185.616v-2.123h-3.622v-0.695l3.479-4.979h1.139v4.846h1.091v0.828h-1.091v2.123H-345.034z M-345.034,182.665
		v-2.602c0-0.408,0.012-0.816,0.036-1.225h-0.036c-0.24,0.457-0.432,0.792-0.647,1.152l-1.907,2.65v0.023H-345.034z"/>
	<path d="M-337.69,178.563c-0.216-0.012-0.492,0-0.792,0.048c-1.655,0.276-2.531,1.487-2.71,2.771h0.036
		c0.372-0.492,1.02-0.899,1.883-0.899c1.379,0,2.351,0.995,2.351,2.519c0,1.428-0.972,2.746-2.591,2.746
		c-1.667,0-2.758-1.295-2.758-3.322c0-1.535,0.552-2.746,1.319-3.514c0.647-0.635,1.511-1.031,2.495-1.15
		c0.312-0.049,0.576-0.061,0.768-0.061V178.563z M-337.99,183.061c0-1.115-0.636-1.787-1.607-1.787
		c-0.636,0-1.224,0.396-1.511,0.959c-0.072,0.12-0.12,0.275-0.12,0.468c0.024,1.283,0.612,2.231,1.715,2.231
		C-338.602,184.932-337.99,184.176-337.99,183.061z"/>
	<path d="M-332.722,185.616v-2.123h-3.622v-0.695l3.479-4.979h1.139v4.846h1.091v0.828h-1.091v2.123H-332.722z M-332.722,182.665
		v-2.602c0-0.408,0.012-0.816,0.036-1.225h-0.036c-0.24,0.457-0.432,0.792-0.647,1.152l-1.907,2.65v0.023H-332.722z"/>
	<path d="M-325.379,178.563c-0.216-0.012-0.492,0-0.792,0.048c-1.655,0.276-2.531,1.487-2.71,2.771h0.036
		c0.372-0.492,1.02-0.899,1.883-0.899c1.379,0,2.351,0.995,2.351,2.519c0,1.428-0.972,2.746-2.591,2.746
		c-1.667,0-2.758-1.295-2.758-3.322c0-1.535,0.552-2.746,1.319-3.514c0.647-0.635,1.511-1.031,2.495-1.15
		c0.312-0.049,0.576-0.061,0.768-0.061V178.563z M-325.679,183.061c0-1.115-0.636-1.787-1.607-1.787
		c-0.636,0-1.224,0.396-1.511,0.959c-0.072,0.12-0.12,0.275-0.12,0.468c0.024,1.283,0.612,2.231,1.715,2.231
		C-326.291,184.932-325.679,184.176-325.679,183.061z"/>
	<path d="M-320.411,185.616v-2.123h-3.622v-0.695l3.479-4.979h1.139v4.846h1.091v0.828h-1.091v2.123H-320.411z M-320.411,182.665
		v-2.602c0-0.408,0.012-0.816,0.036-1.225h-0.036c-0.24,0.457-0.432,0.792-0.647,1.152l-1.907,2.65v0.023H-320.411z"/>
	<path d="M-314.637,181.706c0-0.744-0.024-1.344-0.048-1.895h0.947l0.048,0.994h0.024c0.432-0.707,1.115-1.127,2.063-1.127
		c1.403,0,2.459,1.188,2.459,2.951c0,2.086-1.271,3.117-2.639,3.117c-0.768,0-1.439-0.336-1.787-0.911h-0.024v3.154h-1.043V181.706z
		 M-313.594,183.252c0,0.156,0.024,0.3,0.048,0.432c0.192,0.732,0.828,1.235,1.583,1.235c1.116,0,1.763-0.911,1.763-2.243
		c0-1.162-0.612-2.158-1.727-2.158c-0.72,0-1.391,0.516-1.595,1.307c-0.036,0.133-0.072,0.289-0.072,0.433V183.252z"/>
	<path d="M-307.81,177.1h1.056v8.516h-1.056V177.1z"/>
	<path d="M-299.725,182.665c0,2.146-1.487,3.082-2.89,3.082c-1.571,0-2.783-1.15-2.783-2.986c0-1.942,1.271-3.082,2.878-3.082
		C-300.852,179.678-299.725,180.889-299.725,182.665z M-304.33,182.725c0,1.271,0.732,2.23,1.763,2.23
		c1.007,0,1.763-0.947,1.763-2.255c0-0.983-0.492-2.23-1.739-2.23C-303.79,180.47-304.33,181.622-304.33,182.725z"/>
	<path d="M-298.39,181.381c0-0.6-0.012-1.092-0.048-1.57h0.923l0.048,0.936h0.036c0.324-0.553,0.864-1.068,1.823-1.068
		c0.792,0,1.391,0.48,1.643,1.164h0.024c0.18-0.324,0.408-0.576,0.647-0.756c0.348-0.264,0.731-0.408,1.283-0.408
		c0.768,0,1.907,0.504,1.907,2.52v3.418h-1.032v-3.287c0-1.115-0.408-1.787-1.259-1.787c-0.6,0-1.067,0.444-1.247,0.96
		c-0.048,0.144-0.084,0.336-0.084,0.528v3.586h-1.032v-3.479c0-0.924-0.408-1.596-1.211-1.596c-0.66,0-1.14,0.528-1.308,1.057
		c-0.06,0.155-0.084,0.335-0.084,0.516v3.502h-1.031V181.381z"/>
	<path d="M-283.129,182.665c0,2.146-1.487,3.082-2.89,3.082c-1.571,0-2.783-1.15-2.783-2.986c0-1.942,1.271-3.082,2.878-3.082
		C-284.256,179.678-283.129,180.889-283.129,182.665z M-287.734,182.725c0,1.271,0.732,2.23,1.763,2.23
		c1.007,0,1.763-0.947,1.763-2.255c0-0.983-0.492-2.23-1.739-2.23C-287.194,180.47-287.734,181.622-287.734,182.725z"/>
	<path d="M-273.997,182.665c0,2.146-1.487,3.082-2.89,3.082c-1.571,0-2.783-1.15-2.783-2.986c0-1.942,1.271-3.082,2.878-3.082
		C-275.124,179.678-273.997,180.889-273.997,182.665z M-278.603,182.725c0,1.271,0.732,2.23,1.763,2.23
		c1.007,0,1.763-0.947,1.763-2.255c0-0.983-0.492-2.23-1.739-2.23C-278.063,180.47-278.603,181.622-278.603,182.725z"/>
	<path d="M-272.806,184.536c0.312,0.204,0.864,0.42,1.392,0.42c0.768,0,1.127-0.384,1.127-0.863c0-0.504-0.3-0.779-1.079-1.067
		c-1.043-0.372-1.535-0.948-1.535-1.644c0-0.936,0.755-1.703,2.003-1.703c0.587,0,1.103,0.168,1.427,0.359l-0.264,0.768
		c-0.228-0.143-0.647-0.335-1.187-0.335c-0.624,0-0.972,0.36-0.972,0.792c0,0.479,0.348,0.695,1.104,0.982
		c1.007,0.385,1.523,0.889,1.523,1.752c0,1.02-0.792,1.738-2.171,1.738c-0.635,0-1.223-0.156-1.631-0.396L-272.806,184.536z"/>
	<path d="M-263.772,185.399c-0.276,0.145-0.888,0.336-1.667,0.336c-1.751,0-2.891-1.188-2.891-2.962
		c0-1.787,1.224-3.083,3.119-3.083c0.624,0,1.175,0.156,1.463,0.301l-0.24,0.814c-0.252-0.143-0.647-0.275-1.223-0.275
		c-1.332,0-2.051,0.984-2.051,2.195c0,1.343,0.864,2.17,2.015,2.17c0.6,0,0.996-0.155,1.295-0.287L-263.772,185.399z"/>
	<path d="M-257.677,184.032c0,0.6,0.012,1.128,0.048,1.584h-0.936l-0.06-0.947h-0.024c-0.276,0.467-0.887,1.078-1.919,1.078
		c-0.911,0-2.003-0.503-2.003-2.542v-3.394h1.056v3.214c0,1.103,0.336,1.847,1.295,1.847c0.708,0,1.199-0.492,1.391-0.959
		c0.06-0.156,0.096-0.348,0.096-0.54v-3.562h1.056V184.032z"/>
	<path d="M-255.922,181.622c0-0.684-0.012-1.271-0.048-1.811h0.923l0.036,1.139h0.048c0.264-0.779,0.899-1.271,1.607-1.271
		c0.12,0,0.204,0.012,0.3,0.036v0.995c-0.108-0.023-0.216-0.035-0.36-0.035c-0.744,0-1.271,0.563-1.416,1.355
		c-0.024,0.144-0.048,0.311-0.048,0.491v3.095h-1.043V181.622z"/>
	<path d="M-246.866,182.665c0,2.146-1.487,3.082-2.89,3.082c-1.571,0-2.783-1.15-2.783-2.986c0-1.942,1.271-3.082,2.878-3.082
		C-247.993,179.678-246.866,180.889-246.866,182.665z M-251.471,182.725c0,1.271,0.732,2.23,1.763,2.23
		c1.007,0,1.763-0.947,1.763-2.255c0-0.983-0.492-2.23-1.739-2.23C-250.931,180.47-251.471,181.622-251.471,182.725z"/>
	<path d="M-246.502,187.09c0.264-0.707,0.588-1.99,0.72-2.866l1.175-0.12c-0.276,1.02-0.804,2.351-1.14,2.914L-246.502,187.09z"/>
	<path d="M-359.84,200.015l0.312-2.351h-0.983v-0.707h1.091l0.228-1.74h-1.032v-0.707h1.14l0.312-2.291h0.696l-0.3,2.291h1.247
		l0.312-2.291h0.708l-0.3,2.291h0.983v0.707h-1.091l-0.216,1.74h1.031v0.707h-1.139l-0.312,2.351h-0.719l0.312-2.351h-1.247
		l-0.312,2.351H-359.84z M-357.453,196.958l0.228-1.74h-1.248l-0.228,1.74H-357.453z"/>
	<path d="M-349.894,196.225h-3.142v2.914h3.502v0.876h-4.545v-8.083h4.366v0.875h-3.322v2.555h3.142V196.225z"/>
	<path d="M-346.257,193.203h-0.024l-1.355,0.731l-0.204-0.803l1.703-0.912h0.9v7.796h-1.02V193.203z"/>
	<path d="M-337.834,196.225h-3.142v2.914h3.502v0.876h-4.545v-8.083h4.366v0.875h-3.322v2.555h3.142V196.225z"/>
	<path d="M-334.197,193.203h-0.024l-1.355,0.731l-0.204-0.803l1.703-0.912h0.9v7.796h-1.02V193.203z"/>
	<path d="M-325.775,196.225h-3.142v2.914h3.502v0.876h-4.545v-8.083h4.366v0.875h-3.322v2.555h3.142V196.225z"/>
	<path d="M-322.138,193.203h-0.024l-1.355,0.731l-0.204-0.803l1.703-0.912h0.9v7.796h-1.02V193.203z"/>
	<path d="M-317.937,196.106c0-0.744-0.024-1.344-0.048-1.896h0.947l0.048,0.995h0.024c0.432-0.707,1.115-1.127,2.063-1.127
		c1.403,0,2.459,1.188,2.459,2.95c0,2.087-1.271,3.118-2.639,3.118c-0.768,0-1.439-0.336-1.787-0.912h-0.024v3.154h-1.043V196.106z
		 M-316.894,197.653c0,0.155,0.024,0.299,0.048,0.432c0.192,0.731,0.828,1.234,1.583,1.234c1.116,0,1.763-0.91,1.763-2.242
		c0-1.163-0.612-2.158-1.727-2.158c-0.72,0-1.391,0.516-1.595,1.307c-0.036,0.132-0.072,0.288-0.072,0.432V197.653z"/>
	<path d="M-311.109,191.5h1.056v8.515h-1.056V191.5z"/>
	<path d="M-303.024,197.065c0,2.146-1.487,3.082-2.89,3.082c-1.571,0-2.783-1.151-2.783-2.986c0-1.943,1.271-3.082,2.878-3.082
		C-304.151,194.079-303.024,195.29-303.024,197.065z M-307.63,197.125c0,1.271,0.732,2.231,1.763,2.231
		c1.007,0,1.763-0.947,1.763-2.256c0-0.982-0.492-2.23-1.739-2.23C-307.09,194.87-307.63,196.022-307.63,197.125z"/>
	<path d="M-301.689,195.782c0-0.6-0.012-1.092-0.048-1.571h0.923l0.048,0.936h0.036c0.324-0.552,0.864-1.067,1.823-1.067
		c0.792,0,1.391,0.479,1.643,1.163h0.024c0.18-0.323,0.408-0.575,0.647-0.755c0.348-0.265,0.731-0.408,1.283-0.408
		c0.768,0,1.907,0.504,1.907,2.519v3.418h-1.032v-3.286c0-1.115-0.408-1.787-1.259-1.787c-0.6,0-1.067,0.443-1.247,0.959
		c-0.048,0.145-0.084,0.336-0.084,0.528v3.586h-1.032v-3.478c0-0.924-0.408-1.596-1.211-1.596c-0.66,0-1.14,0.527-1.308,1.056
		c-0.06,0.155-0.084,0.335-0.084,0.516v3.502h-1.031V195.782z"/>
	<path d="M-286.429,197.065c0,2.146-1.487,3.082-2.89,3.082c-1.571,0-2.783-1.151-2.783-2.986c0-1.943,1.271-3.082,2.878-3.082
		C-287.556,194.079-286.429,195.29-286.429,197.065z M-291.034,197.125c0,1.271,0.732,2.231,1.763,2.231
		c1.007,0,1.763-0.947,1.763-2.256c0-0.982-0.492-2.23-1.739-2.23C-290.494,194.87-291.034,196.022-291.034,197.125z"/>
	<path d="M-282.442,200.015v-5.001h-0.815v-0.804h0.815v-0.276c0-0.814,0.18-1.559,0.672-2.026c0.396-0.384,0.923-0.54,1.415-0.54
		c0.372,0,0.696,0.084,0.899,0.168l-0.144,0.816c-0.156-0.072-0.372-0.133-0.671-0.133c-0.899,0-1.127,0.792-1.127,1.68v0.312h1.403
		v0.804h-1.403v5.001H-282.442z"/>
	<path d="M-273.949,197.065c0,2.146-1.487,3.082-2.89,3.082c-1.571,0-2.783-1.151-2.783-2.986c0-1.943,1.271-3.082,2.878-3.082
		C-275.076,194.079-273.949,195.29-273.949,197.065z M-278.554,197.125c0,1.271,0.732,2.231,1.763,2.231
		c1.007,0,1.763-0.947,1.763-2.256c0-0.982-0.492-2.23-1.739-2.23C-278.014,194.87-278.554,196.022-278.554,197.125z"/>
	<path d="M-272.614,195.782c0-0.6-0.012-1.092-0.048-1.571h0.936l0.06,0.96h0.024c0.288-0.553,0.959-1.092,1.919-1.092
		c0.803,0,2.051,0.479,2.051,2.471v3.466h-1.056v-3.347c0-0.936-0.348-1.715-1.343-1.715c-0.695,0-1.235,0.492-1.415,1.08
		c-0.048,0.131-0.072,0.312-0.072,0.491v3.49h-1.056V195.782z"/>
	<path d="M-260.941,191.5v7.016c0,0.516,0.012,1.104,0.048,1.499h-0.947l-0.048-1.007h-0.024c-0.324,0.646-1.032,1.139-1.979,1.139
		c-1.403,0-2.483-1.188-2.483-2.95c-0.012-1.931,1.188-3.118,2.603-3.118c0.888,0,1.487,0.42,1.751,0.887h0.024V191.5H-260.941z
		 M-261.996,196.573c0-0.132-0.012-0.312-0.048-0.443c-0.156-0.672-0.731-1.224-1.523-1.224c-1.091,0-1.739,0.96-1.739,2.243
		c0,1.176,0.576,2.146,1.715,2.146c0.708,0,1.355-0.468,1.547-1.26c0.036-0.144,0.048-0.287,0.048-0.455V196.573z"/>
	<path d="M-253.933,197.065c0,2.146-1.487,3.082-2.89,3.082c-1.571,0-2.783-1.151-2.783-2.986c0-1.943,1.271-3.082,2.878-3.082
		C-255.06,194.079-253.933,195.29-253.933,197.065z M-258.539,197.125c0,1.271,0.732,2.231,1.763,2.231
		c1.007,0,1.763-0.947,1.763-2.256c0-0.982-0.492-2.23-1.739-2.23C-257.999,194.87-258.539,196.022-258.539,197.125z"/>
	<path d="M-253.57,201.491c0.264-0.708,0.588-1.991,0.72-2.867l1.175-0.119c-0.276,1.02-0.804,2.35-1.14,2.914L-253.57,201.491z"/>
	<path d="M-359.84,214.416l0.312-2.351h-0.983v-0.708h1.091l0.228-1.738h-1.032v-0.708h1.14l0.312-2.291h0.696l-0.3,2.291h1.247
		l0.312-2.291h0.708l-0.3,2.291h0.983v0.708h-1.091l-0.216,1.738h1.031v0.708h-1.139l-0.312,2.351h-0.719l0.312-2.351h-1.247
		l-0.312,2.351H-359.84z M-357.453,211.357l0.228-1.738h-1.248l-0.228,1.738H-357.453z"/>
	<path d="M-349.894,210.625h-3.142v2.914h3.502v0.876h-4.545v-8.083h4.366v0.875h-3.322v2.555h3.142V210.625z"/>
	<path d="M-346.257,207.603h-0.024l-1.355,0.731l-0.204-0.803l1.703-0.912h0.9v7.796h-1.02V207.603z"/>
	<path d="M-342.02,206.44c0.636-0.096,1.391-0.168,2.219-0.168c1.499,0,2.566,0.348,3.274,1.008c0.72,0.659,1.14,1.595,1.14,2.902
		c0,1.319-0.408,2.398-1.164,3.142c-0.755,0.756-2.003,1.164-3.574,1.164c-0.744,0-1.367-0.036-1.895-0.097V206.44z
		 M-340.977,213.588c0.264,0.048,0.647,0.06,1.055,0.06c2.231,0,3.442-1.247,3.442-3.43c0.012-1.907-1.067-3.119-3.274-3.119
		c-0.54,0-0.947,0.049-1.223,0.108V213.588z"/>
	<path d="M-329.747,207.507h-2.975l-0.3,2.003c0.18-0.024,0.348-0.048,0.636-0.048c0.6,0,1.199,0.132,1.679,0.42
		c0.611,0.348,1.115,1.02,1.115,2.003c0,1.522-1.211,2.662-2.902,2.662c-0.852,0-1.571-0.24-1.943-0.479l0.264-0.804
		c0.324,0.192,0.959,0.432,1.667,0.432c0.996,0,1.847-0.647,1.847-1.691c-0.012-1.007-0.684-1.727-2.243-1.727
		c-0.444,0-0.792,0.048-1.08,0.084l0.504-3.742h3.73V207.507z"/>
	<path d="M-327.873,206.44c0.636-0.096,1.391-0.168,2.219-0.168c1.499,0,2.566,0.348,3.274,1.008c0.72,0.659,1.14,1.595,1.14,2.902
		c0,1.319-0.408,2.398-1.164,3.142c-0.755,0.756-2.003,1.164-3.574,1.164c-0.744,0-1.367-0.036-1.895-0.097V206.44z
		 M-326.829,213.588c0.264,0.048,0.647,0.06,1.055,0.06c2.231,0,3.442-1.247,3.442-3.43c0.012-1.907-1.067-3.119-3.274-3.119
		c-0.54,0-0.947,0.049-1.223,0.108V213.588z"/>
	<path d="M-319.641,213.672c0.228,0.023,0.492,0,0.852-0.036c0.612-0.084,1.188-0.336,1.631-0.756
		c0.516-0.468,0.888-1.151,1.032-2.075h-0.036c-0.432,0.528-1.055,0.84-1.835,0.84c-1.403,0-2.303-1.056-2.303-2.387
		c0-1.476,1.067-2.771,2.663-2.771s2.579,1.295,2.579,3.286c0,1.715-0.576,2.915-1.343,3.658c-0.6,0.588-1.427,0.947-2.267,1.043
		c-0.384,0.061-0.72,0.072-0.972,0.061V213.672z M-319.257,209.186c0,0.972,0.588,1.655,1.499,1.655
		c0.708,0,1.259-0.348,1.535-0.815c0.06-0.096,0.096-0.216,0.096-0.384c0-1.331-0.492-2.351-1.595-2.351
		C-318.622,207.292-319.257,208.083-319.257,209.186z"/>
	<path d="M-311.217,210.421c0-0.684-0.012-1.271-0.048-1.811h0.923l0.036,1.14h0.048c0.264-0.78,0.899-1.271,1.607-1.271
		c0.12,0,0.204,0.012,0.3,0.036v0.995c-0.108-0.024-0.216-0.036-0.36-0.036c-0.744,0-1.271,0.563-1.416,1.355
		c-0.024,0.144-0.048,0.312-0.048,0.491v3.095h-1.043V210.421z"/>
	<path d="M-302.161,211.465c0,2.146-1.487,3.082-2.89,3.082c-1.571,0-2.783-1.151-2.783-2.986c0-1.942,1.271-3.082,2.878-3.082
		C-303.288,208.479-302.161,209.69-302.161,211.465z M-306.766,211.525c0,1.271,0.732,2.231,1.763,2.231
		c1.007,0,1.763-0.948,1.763-2.255c0-0.983-0.492-2.231-1.739-2.231C-306.226,209.27-306.766,210.421-306.766,211.525z"/>
	<path d="M-300.97,213.336c0.312,0.203,0.864,0.42,1.392,0.42c0.768,0,1.127-0.384,1.127-0.864c0-0.504-0.3-0.779-1.079-1.067
		c-1.043-0.371-1.535-0.947-1.535-1.643c0-0.936,0.755-1.703,2.003-1.703c0.587,0,1.104,0.168,1.427,0.359l-0.264,0.768
		c-0.228-0.144-0.647-0.336-1.187-0.336c-0.624,0-0.972,0.36-0.972,0.792c0,0.479,0.348,0.695,1.104,0.983
		c1.007,0.384,1.523,0.888,1.523,1.751c0,1.02-0.792,1.739-2.171,1.739c-0.635,0-1.223-0.156-1.631-0.396L-300.97,213.336z"/>
	<path d="M-292.859,214.416l-0.084-0.731h-0.036c-0.324,0.456-0.947,0.863-1.775,0.863c-1.175,0-1.775-0.827-1.775-1.667
		c0-1.403,1.247-2.171,3.49-2.159v-0.119c0-0.48-0.132-1.344-1.319-1.344c-0.54,0-1.104,0.168-1.511,0.432l-0.24-0.695
		c0.48-0.312,1.175-0.516,1.907-0.516c1.775,0,2.207,1.211,2.207,2.374v2.171c0,0.504,0.024,0.996,0.096,1.392H-292.859z
		 M-293.016,211.454c-1.151-0.024-2.458,0.18-2.458,1.307c0,0.684,0.456,1.008,0.996,1.008c0.755,0,1.235-0.479,1.403-0.972
		c0.036-0.107,0.06-0.228,0.06-0.336V211.454z"/>
	<path d="M-290.973,215.891c0.264-0.708,0.588-1.991,0.72-2.867l1.175-0.119c-0.276,1.019-0.804,2.351-1.14,2.914L-290.973,215.891z
		"/>
	<path d="M-359.84,228.815l0.312-2.351h-0.983v-0.708h1.091l0.228-1.739h-1.032v-0.707h1.14l0.312-2.291h0.696l-0.3,2.291h1.247
		l0.312-2.291h0.708l-0.3,2.291h0.983v0.707h-1.091l-0.216,1.739h1.031v0.708h-1.139l-0.312,2.351h-0.719l0.312-2.351h-1.247
		l-0.312,2.351H-359.84z M-357.453,225.756l0.228-1.739h-1.248l-0.228,1.739H-357.453z"/>
	<path d="M-354.08,220.731h4.354v0.876h-3.31v2.687h3.058v0.863h-3.058v3.658h-1.043V220.731z"/>
	<path d="M-348.236,220.731h4.354v0.876h-3.31v2.687h3.058v0.863h-3.058v3.658h-1.043V220.731z"/>
	<path d="M-342.392,220.839c0.456-0.096,1.175-0.168,1.907-0.168c1.043,0,1.715,0.18,2.219,0.588
		c0.42,0.312,0.672,0.791,0.672,1.427c0,0.78-0.516,1.464-1.367,1.775v0.023c0.768,0.192,1.667,0.828,1.667,2.027
		c0,0.695-0.276,1.224-0.684,1.619c-0.564,0.516-1.475,0.756-2.794,0.756c-0.72,0-1.271-0.048-1.619-0.097V220.839z
		 M-341.349,224.15h0.947c1.104,0,1.751-0.576,1.751-1.355c0-0.947-0.72-1.319-1.775-1.319c-0.48,0-0.755,0.036-0.923,0.072V224.15z
		 M-341.349,228.023c0.204,0.036,0.503,0.049,0.875,0.049c1.079,0,2.075-0.396,2.075-1.571c0-1.104-0.947-1.56-2.087-1.56h-0.863
		V228.023z"/>
	<path d="M-335.888,220.731h4.354v0.876h-3.31v2.687h3.058v0.863h-3.058v3.658h-1.043V220.731z"/>
	<path d="M-325.235,224.833c0,2.65-0.983,4.113-2.71,4.113c-1.523,0-2.555-1.427-2.579-4.006c0-2.614,1.127-4.054,2.71-4.054
		C-326.171,220.887-325.235,222.35-325.235,224.833z M-329.469,224.953c0,2.027,0.624,3.179,1.583,3.179
		c1.08,0,1.595-1.26,1.595-3.25c0-1.919-0.492-3.179-1.583-3.179C-328.797,221.703-329.469,222.831-329.469,224.953z"/>
	<path d="M-319.08,224.833c0,2.65-0.983,4.113-2.71,4.113c-1.523,0-2.555-1.427-2.579-4.006c0-2.614,1.127-4.054,2.71-4.054
		C-320.015,220.887-319.08,222.35-319.08,224.833z M-323.313,224.953c0,2.027,0.624,3.179,1.583,3.179c1.08,0,1.595-1.26,1.595-3.25
		c0-1.919-0.492-3.179-1.583-3.179C-322.642,221.703-323.313,222.831-323.313,224.953z"/>
	<path d="M-312.011,228.815l-0.084-0.731h-0.036c-0.324,0.456-0.947,0.863-1.775,0.863c-1.175,0-1.775-0.827-1.775-1.667
		c0-1.403,1.247-2.171,3.49-2.159v-0.119c0-0.48-0.132-1.344-1.319-1.344c-0.54,0-1.104,0.168-1.511,0.432l-0.24-0.695
		c0.48-0.312,1.175-0.516,1.907-0.516c1.775,0,2.207,1.211,2.207,2.374v2.171c0,0.504,0.024,0.996,0.096,1.392H-312.011z
		 M-312.167,225.853c-1.151-0.024-2.458,0.18-2.458,1.307c0,0.684,0.456,1.008,0.996,1.008c0.755,0,1.235-0.479,1.403-0.972
		c0.036-0.108,0.06-0.228,0.06-0.336V225.853z"/>
	<path d="M-309.441,224.582c0-0.6-0.012-1.092-0.048-1.571h0.923l0.048,0.936h0.036c0.324-0.552,0.864-1.067,1.823-1.067
		c0.792,0,1.391,0.479,1.643,1.163h0.024c0.18-0.324,0.408-0.575,0.647-0.756c0.348-0.264,0.731-0.407,1.283-0.407
		c0.768,0,1.907,0.504,1.907,2.519v3.418h-1.032v-3.286c0-1.115-0.408-1.787-1.259-1.787c-0.6,0-1.067,0.443-1.247,0.96
		c-0.048,0.144-0.084,0.335-0.084,0.527v3.586h-1.031v-3.479c0-0.923-0.408-1.595-1.211-1.595c-0.66,0-1.14,0.527-1.308,1.056
		c-0.06,0.155-0.084,0.336-0.084,0.516v3.502h-1.031V224.582z"/>
	<path d="M-296.219,228.815l-0.084-0.731h-0.036c-0.324,0.456-0.947,0.863-1.775,0.863c-1.175,0-1.775-0.827-1.775-1.667
		c0-1.403,1.247-2.171,3.49-2.159v-0.119c0-0.48-0.132-1.344-1.319-1.344c-0.54,0-1.104,0.168-1.511,0.432l-0.24-0.695
		c0.48-0.312,1.175-0.516,1.907-0.516c1.775,0,2.207,1.211,2.207,2.374v2.171c0,0.504,0.024,0.996,0.096,1.392H-296.219z
		 M-296.375,225.853c-1.151-0.024-2.458,0.18-2.458,1.307c0,0.684,0.456,1.008,0.996,1.008c0.755,0,1.235-0.479,1.403-0.972
		c0.036-0.108,0.06-0.228,0.06-0.336V225.853z"/>
	<path d="M-293.649,224.821c0-0.684-0.012-1.271-0.048-1.811h0.923l0.036,1.14h0.048c0.264-0.78,0.899-1.271,1.607-1.271
		c0.12,0,0.204,0.012,0.3,0.036v0.995c-0.108-0.024-0.216-0.036-0.36-0.036c-0.744,0-1.271,0.563-1.416,1.355
		c-0.024,0.144-0.048,0.312-0.048,0.491v3.095h-1.043V224.821z"/>
	<path d="M-288.502,221.379c0.012,0.359-0.252,0.647-0.671,0.647c-0.372,0-0.636-0.288-0.636-0.647c0-0.372,0.276-0.66,0.66-0.66
		C-288.754,220.719-288.502,221.007-288.502,221.379z M-289.677,228.815v-5.805h1.056v5.805H-289.677z"/>
	<path d="M-286.869,220.299h1.056v8.516h-1.056V220.299z"/>
	<path d="M-284.037,220.299h1.056v8.516h-1.056V220.299z"/>
	<path d="M-275.952,225.865c0,2.146-1.487,3.082-2.89,3.082c-1.571,0-2.783-1.151-2.783-2.986c0-1.943,1.271-3.082,2.878-3.082
		C-277.079,222.878-275.952,224.089-275.952,225.865z M-280.558,225.924c0,1.271,0.732,2.231,1.763,2.231
		c1.007,0,1.763-0.948,1.763-2.255c0-0.983-0.492-2.231-1.739-2.231C-280.018,223.669-280.558,224.821-280.558,225.924z"/>
	<path d="M-272.757,230.291c0.264-0.708,0.588-1.991,0.72-2.867l1.175-0.119c-0.276,1.019-0.804,2.351-1.14,2.914L-272.757,230.291z
		"/>
	<path d="M-359.84,243.215l0.312-2.351h-0.983v-0.708h1.091l0.228-1.739h-1.032v-0.707h1.14l0.312-2.291h0.696l-0.3,2.291h1.247
		l0.312-2.291h0.708l-0.3,2.291h0.983v0.707h-1.091l-0.216,1.739h1.031v0.708h-1.139l-0.312,2.351h-0.719l0.312-2.351h-1.247
		l-0.312,2.351H-359.84z M-357.453,240.157l0.228-1.739h-1.248l-0.228,1.739H-357.453z"/>
	<path d="M-349.798,236.307h-2.975l-0.3,2.003c0.18-0.024,0.348-0.048,0.636-0.048c0.6,0,1.199,0.132,1.679,0.42
		c0.611,0.348,1.115,1.02,1.115,2.003c0,1.522-1.211,2.662-2.902,2.662c-0.852,0-1.571-0.24-1.943-0.479l0.264-0.804
		c0.324,0.191,0.959,0.432,1.667,0.432c0.996,0,1.847-0.647,1.847-1.691c-0.012-1.007-0.684-1.727-2.243-1.727
		c-0.444,0-0.792,0.048-1.08,0.084l0.504-3.742h3.73V236.307z"/>
	<path d="M-342.275,242.952c-0.384,0.191-1.151,0.384-2.135,0.384c-2.279,0-3.994-1.439-3.994-4.09c0-2.53,1.715-4.246,4.222-4.246
		c1.007,0,1.643,0.216,1.919,0.36l-0.252,0.852c-0.396-0.192-0.959-0.336-1.631-0.336c-1.895,0-3.154,1.211-3.154,3.334
		c0,1.979,1.139,3.25,3.106,3.25c0.635,0,1.283-0.132,1.703-0.336L-342.275,242.952z"/>
	<path d="M-336.682,236.307h-2.975l-0.3,2.003c0.18-0.024,0.348-0.048,0.636-0.048c0.6,0,1.199,0.132,1.679,0.42
		c0.611,0.348,1.115,1.02,1.115,2.003c0,1.522-1.211,2.662-2.902,2.662c-0.852,0-1.571-0.24-1.943-0.479l0.264-0.804
		c0.324,0.191,0.959,0.432,1.667,0.432c0.996,0,1.847-0.647,1.847-1.691c-0.012-1.007-0.684-1.727-2.243-1.727
		c-0.444,0-0.792,0.048-1.08,0.084l0.504-3.742h3.73V236.307z"/>
	<path d="M-329.159,242.952c-0.384,0.191-1.151,0.384-2.135,0.384c-2.279,0-3.994-1.439-3.994-4.09c0-2.53,1.715-4.246,4.222-4.246
		c1.008,0,1.643,0.216,1.919,0.36l-0.252,0.852c-0.396-0.192-0.959-0.336-1.631-0.336c-1.895,0-3.154,1.211-3.154,3.334
		c0,1.979,1.139,3.25,3.106,3.25c0.636,0,1.283-0.132,1.703-0.336L-329.159,242.952z"/>
	<path d="M-327.608,242.472c0.228,0.023,0.492,0,0.852-0.036c0.612-0.084,1.188-0.336,1.631-0.756
		c0.516-0.468,0.888-1.151,1.032-2.075h-0.036c-0.432,0.528-1.055,0.84-1.835,0.84c-1.403,0-2.303-1.056-2.303-2.387
		c0-1.476,1.067-2.771,2.663-2.771s2.579,1.295,2.579,3.286c0,1.715-0.576,2.914-1.343,3.658c-0.6,0.588-1.427,0.947-2.267,1.043
		c-0.384,0.061-0.72,0.072-0.972,0.061V242.472z M-327.225,237.986c0,0.972,0.588,1.655,1.499,1.655
		c0.708,0,1.259-0.348,1.535-0.815c0.06-0.096,0.096-0.216,0.096-0.384c0-1.331-0.492-2.351-1.595-2.351
		C-326.589,236.091-327.225,236.882-327.225,237.986z"/>
	<path d="M-317.411,236.307h-2.975l-0.3,2.003c0.18-0.024,0.348-0.048,0.636-0.048c0.6,0,1.199,0.132,1.679,0.42
		c0.611,0.348,1.115,1.02,1.115,2.003c0,1.522-1.211,2.662-2.902,2.662c-0.852,0-1.571-0.24-1.943-0.479l0.264-0.804
		c0.324,0.191,0.959,0.432,1.667,0.432c0.996,0,1.847-0.647,1.847-1.691c-0.012-1.007-0.684-1.727-2.243-1.727
		c-0.444,0-0.792,0.048-1.08,0.084l0.504-3.742h3.73V236.307z"/>
	<path d="M-313.029,238.982c0-0.6-0.012-1.092-0.048-1.571h0.923l0.048,0.936h0.036c0.324-0.552,0.864-1.067,1.823-1.067
		c0.792,0,1.391,0.479,1.643,1.163h0.024c0.18-0.324,0.408-0.575,0.647-0.756c0.348-0.264,0.731-0.407,1.283-0.407
		c0.768,0,1.907,0.504,1.907,2.519v3.418h-1.032v-3.286c0-1.115-0.408-1.787-1.259-1.787c-0.6,0-1.067,0.443-1.247,0.96
		c-0.048,0.144-0.084,0.335-0.084,0.527v3.586h-1.031v-3.479c0-0.923-0.408-1.595-1.211-1.595c-0.66,0-1.14,0.527-1.308,1.056
		c-0.06,0.155-0.084,0.336-0.084,0.516v3.502h-1.031V238.982z"/>
	<path d="M-297.768,240.265c0,2.146-1.487,3.082-2.89,3.082c-1.571,0-2.783-1.151-2.783-2.986c0-1.943,1.271-3.082,2.878-3.082
		C-298.895,237.279-297.768,238.49-297.768,240.265z M-302.374,240.325c0,1.271,0.732,2.231,1.763,2.231
		c1.007,0,1.763-0.948,1.763-2.255c0-0.983-0.492-2.231-1.739-2.231C-301.833,238.07-302.374,239.221-302.374,240.325z"/>
	<path d="M-296.433,239.221c0-0.684-0.012-1.271-0.048-1.811h0.923l0.036,1.14h0.048c0.264-0.78,0.899-1.271,1.607-1.271
		c0.12,0,0.204,0.012,0.3,0.036v0.995c-0.108-0.024-0.216-0.036-0.36-0.036c-0.744,0-1.271,0.563-1.416,1.355
		c-0.024,0.144-0.048,0.312-0.048,0.491v3.095h-1.043V239.221z"/>
	<path d="M-289.355,243.215l-0.084-0.731h-0.036c-0.324,0.456-0.947,0.863-1.775,0.863c-1.175,0-1.775-0.827-1.775-1.667
		c0-1.403,1.247-2.171,3.49-2.159v-0.119c0-0.48-0.132-1.344-1.319-1.344c-0.54,0-1.103,0.168-1.511,0.432l-0.24-0.695
		c0.48-0.312,1.176-0.516,1.907-0.516c1.775,0,2.207,1.211,2.207,2.374v2.171c0,0.504,0.024,0.996,0.096,1.392H-289.355z
		 M-289.511,240.253c-1.151-0.024-2.459,0.18-2.459,1.307c0,0.684,0.456,1.008,0.996,1.008c0.755,0,1.235-0.479,1.403-0.972
		c0.036-0.108,0.06-0.228,0.06-0.336V240.253z"/>
	<path d="M-281.772,234.7v7.017c0,0.516,0.012,1.104,0.048,1.499h-0.947l-0.048-1.008h-0.024c-0.324,0.648-1.032,1.14-1.979,1.14
		c-1.403,0-2.483-1.188-2.483-2.95c-0.012-1.931,1.188-3.118,2.603-3.118c0.888,0,1.487,0.42,1.751,0.888h0.024V234.7H-281.772z
		 M-282.827,239.773c0-0.132-0.012-0.312-0.048-0.443c-0.156-0.672-0.731-1.224-1.523-1.224c-1.091,0-1.739,0.96-1.739,2.243
		c0,1.175,0.576,2.146,1.715,2.146c0.708,0,1.355-0.468,1.547-1.259c0.036-0.145,0.048-0.288,0.048-0.456V239.773z"/>
	<path d="M-274.764,240.265c0,2.146-1.487,3.082-2.89,3.082c-1.571,0-2.783-1.151-2.783-2.986c0-1.943,1.271-3.082,2.878-3.082
		C-275.891,237.279-274.764,238.49-274.764,240.265z M-279.37,240.325c0,1.271,0.732,2.231,1.763,2.231
		c1.007,0,1.763-0.948,1.763-2.255c0-0.983-0.492-2.231-1.739-2.231C-278.83,238.07-279.37,239.221-279.37,240.325z"/>
	<path d="M-266.748,243c-0.276,0.144-0.887,0.336-1.667,0.336c-1.751,0-2.891-1.188-2.891-2.963c0-1.787,1.224-3.082,3.119-3.082
		c0.624,0,1.175,0.156,1.463,0.3l-0.24,0.815c-0.252-0.144-0.647-0.275-1.223-0.275c-1.332,0-2.051,0.983-2.051,2.194
		c0,1.344,0.864,2.171,2.015,2.171c0.6,0,0.996-0.156,1.295-0.288L-266.748,243z"/>
	<path d="M-265.509,234.7h1.056v8.516h-1.056V234.7z"/>
	<path d="M-259.463,243.215l-0.084-0.731h-0.036c-0.324,0.456-0.947,0.863-1.775,0.863c-1.175,0-1.775-0.827-1.775-1.667
		c0-1.403,1.247-2.171,3.49-2.159v-0.119c0-0.48-0.132-1.344-1.319-1.344c-0.54,0-1.104,0.168-1.511,0.432l-0.24-0.695
		c0.48-0.312,1.175-0.516,1.907-0.516c1.775,0,2.207,1.211,2.207,2.374v2.171c0,0.504,0.024,0.996,0.096,1.392H-259.463z
		 M-259.619,240.253c-1.151-0.024-2.458,0.18-2.458,1.307c0,0.684,0.456,1.008,0.996,1.008c0.755,0,1.235-0.479,1.403-0.972
		c0.036-0.108,0.06-0.228,0.06-0.336V240.253z"/>
	<path d="M-256.894,239.221c0-0.684-0.012-1.271-0.048-1.811h0.923l0.036,1.14h0.048c0.264-0.78,0.899-1.271,1.607-1.271
		c0.12,0,0.204,0.012,0.3,0.036v0.995c-0.108-0.024-0.216-0.036-0.359-0.036c-0.744,0-1.271,0.563-1.416,1.355
		c-0.024,0.144-0.048,0.312-0.048,0.491v3.095h-1.043V239.221z"/>
	<path d="M-247.836,240.265c0,2.146-1.487,3.082-2.89,3.082c-1.571,0-2.783-1.151-2.783-2.986c0-1.943,1.271-3.082,2.878-3.082
		C-248.963,237.279-247.836,238.49-247.836,240.265z M-252.442,240.325c0,1.271,0.732,2.231,1.763,2.231
		c1.007,0,1.763-0.948,1.763-2.255c0-0.983-0.492-2.231-1.739-2.231C-251.902,238.07-252.442,239.221-252.442,240.325z"/>
	<path d="M-247.473,244.691c0.264-0.708,0.588-1.991,0.72-2.867l1.175-0.119c-0.276,1.019-0.804,2.351-1.14,2.914L-247.473,244.691z
		"/>
	<path d="M-359.84,257.615l0.312-2.351h-0.983v-0.708h1.091l0.228-1.738h-1.032v-0.708h1.14l0.312-2.291h0.696l-0.3,2.291h1.247
		l0.312-2.291h0.708l-0.3,2.291h0.983v0.708h-1.091l-0.216,1.738h1.031v0.708h-1.139l-0.312,2.351h-0.719l0.312-2.351h-1.247
		l-0.312,2.351H-359.84z M-357.453,254.556l0.228-1.738h-1.248l-0.228,1.738H-357.453z"/>
	<path d="M-352.161,250.802h-0.024l-1.355,0.731l-0.204-0.803l1.703-0.912h0.9v7.796h-1.02V250.802z"/>
	<path d="M-343.642,250.707h-2.975l-0.3,2.003c0.18-0.024,0.348-0.048,0.636-0.048c0.6,0,1.199,0.132,1.679,0.42
		c0.611,0.348,1.115,1.02,1.115,2.003c0,1.522-1.211,2.662-2.902,2.662c-0.852,0-1.571-0.24-1.943-0.479l0.264-0.804
		c0.324,0.192,0.959,0.432,1.667,0.432c0.996,0,1.847-0.647,1.847-1.691c-0.012-1.007-0.684-1.727-2.243-1.727
		c-0.444,0-0.792,0.048-1.08,0.084l0.504-3.742h3.73V250.707z"/>
	<path d="M-339.849,250.802h-0.024l-1.355,0.731l-0.204-0.803l1.703-0.912h0.9v7.796h-1.02V250.802z"/>
	<path d="M-331.331,250.707h-2.975l-0.3,2.003c0.18-0.024,0.348-0.048,0.636-0.048c0.6,0,1.199,0.132,1.679,0.42
		c0.611,0.348,1.115,1.02,1.115,2.003c0,1.522-1.211,2.662-2.902,2.662c-0.852,0-1.571-0.24-1.943-0.479l0.264-0.804
		c0.324,0.192,0.959,0.432,1.667,0.432c0.996,0,1.847-0.647,1.847-1.691c-0.012-1.007-0.684-1.727-2.243-1.727
		c-0.444,0-0.792,0.048-1.08,0.084l0.504-3.742h3.73V250.707z"/>
	<path d="M-326.566,257.615v-2.123h-3.622v-0.695l3.479-4.978h1.139v4.846h1.091v0.827h-1.091v2.123H-326.566z M-326.566,254.665
		v-2.603c0-0.408,0.012-0.815,0.036-1.224h-0.036c-0.24,0.456-0.432,0.792-0.647,1.151l-1.907,2.65v0.024H-326.566z"/>
	<path d="M-323.301,249.531h4.354v0.876h-3.31v2.687h3.058v0.863h-3.058v3.658h-1.043V249.531z"/>
	<path d="M-314.949,253.381c0-0.6-0.012-1.092-0.048-1.571h0.923l0.048,0.936h0.036c0.324-0.552,0.864-1.067,1.823-1.067
		c0.792,0,1.391,0.479,1.643,1.163h0.024c0.18-0.324,0.408-0.575,0.647-0.756c0.348-0.264,0.731-0.407,1.283-0.407
		c0.768,0,1.907,0.504,1.907,2.519v3.418h-1.032v-3.286c0-1.115-0.408-1.787-1.259-1.787c-0.6,0-1.067,0.443-1.247,0.96
		c-0.048,0.144-0.084,0.335-0.084,0.527v3.586h-1.031v-3.479c0-0.923-0.408-1.595-1.211-1.595c-0.66,0-1.14,0.527-1.308,1.056
		c-0.06,0.155-0.084,0.336-0.084,0.516v3.502h-1.031V253.381z"/>
	<path d="M-299.688,254.665c0,2.146-1.487,3.082-2.89,3.082c-1.571,0-2.783-1.151-2.783-2.986c0-1.942,1.271-3.082,2.878-3.082
		C-300.815,251.678-299.688,252.889-299.688,254.665z M-304.293,254.724c0,1.271,0.732,2.231,1.763,2.231
		c1.007,0,1.763-0.948,1.763-2.255c0-0.983-0.492-2.231-1.739-2.231C-303.753,252.469-304.293,253.621-304.293,254.724z"/>
	<path d="M-298.353,253.621c0-0.684-0.012-1.271-0.048-1.811h0.923l0.036,1.14h0.048c0.264-0.78,0.899-1.271,1.607-1.271
		c0.12,0,0.204,0.012,0.3,0.036v0.995c-0.108-0.024-0.216-0.036-0.36-0.036c-0.744,0-1.271,0.563-1.416,1.355
		c-0.024,0.144-0.048,0.312-0.048,0.491v3.095h-1.043V253.621z"/>
	<path d="M-291.275,257.615l-0.084-0.731h-0.036c-0.324,0.456-0.947,0.863-1.775,0.863c-1.175,0-1.775-0.827-1.775-1.667
		c0-1.403,1.247-2.171,3.49-2.159v-0.119c0-0.48-0.132-1.344-1.319-1.344c-0.54,0-1.103,0.168-1.511,0.432l-0.24-0.695
		c0.48-0.312,1.176-0.516,1.907-0.516c1.775,0,2.207,1.211,2.207,2.374v2.171c0,0.504,0.024,0.996,0.096,1.392H-291.275z
		 M-291.431,254.653c-1.151-0.024-2.459,0.18-2.459,1.307c0,0.684,0.456,1.008,0.996,1.008c0.755,0,1.235-0.479,1.403-0.972
		c0.036-0.107,0.06-0.228,0.06-0.336V254.653z"/>
	<path d="M-283.692,249.099v7.017c0,0.516,0.012,1.104,0.048,1.499h-0.947l-0.048-1.008h-0.024c-0.324,0.648-1.032,1.14-1.979,1.14
		c-1.403,0-2.483-1.188-2.483-2.95c-0.012-1.931,1.188-3.118,2.603-3.118c0.888,0,1.487,0.42,1.751,0.888h0.024v-3.467H-283.692z
		 M-284.747,254.172c0-0.132-0.012-0.312-0.048-0.443c-0.156-0.672-0.731-1.224-1.523-1.224c-1.091,0-1.739,0.96-1.739,2.243
		c0,1.175,0.576,2.146,1.715,2.146c0.708,0,1.355-0.468,1.547-1.259c0.036-0.145,0.048-0.288,0.048-0.456V254.172z"/>
	<path d="M-276.684,254.665c0,2.146-1.487,3.082-2.89,3.082c-1.571,0-2.783-1.151-2.783-2.986c0-1.942,1.271-3.082,2.878-3.082
		C-277.811,251.678-276.684,252.889-276.684,254.665z M-281.29,254.724c0,1.271,0.732,2.231,1.763,2.231
		c1.007,0,1.763-0.948,1.763-2.255c0-0.983-0.492-2.231-1.739-2.231C-280.75,252.469-281.29,253.621-281.29,254.724z"/>
	<path d="M-267.552,254.665c0,2.146-1.487,3.082-2.89,3.082c-1.571,0-2.783-1.151-2.783-2.986c0-1.942,1.271-3.082,2.878-3.082
		C-268.679,251.678-267.552,252.889-267.552,254.665z M-272.158,254.724c0,1.271,0.732,2.231,1.763,2.231
		c1.007,0,1.763-0.948,1.763-2.255c0-0.983-0.492-2.231-1.739-2.231C-271.618,252.469-272.158,253.621-272.158,254.724z"/>
	<path d="M-266.361,256.536c0.312,0.203,0.864,0.42,1.392,0.42c0.768,0,1.127-0.384,1.127-0.864c0-0.504-0.3-0.779-1.079-1.067
		c-1.043-0.371-1.535-0.947-1.535-1.643c0-0.936,0.755-1.703,2.003-1.703c0.587,0,1.104,0.168,1.427,0.359l-0.264,0.768
		c-0.228-0.144-0.647-0.336-1.187-0.336c-0.624,0-0.972,0.36-0.972,0.792c0,0.479,0.348,0.695,1.104,0.983
		c1.007,0.384,1.523,0.888,1.523,1.751c0,1.02-0.792,1.739-2.171,1.739c-0.635,0-1.223-0.156-1.631-0.396L-266.361,256.536z"/>
	<path d="M-257.328,257.399c-0.276,0.144-0.887,0.336-1.667,0.336c-1.751,0-2.891-1.188-2.891-2.963
		c0-1.787,1.224-3.082,3.119-3.082c0.624,0,1.175,0.156,1.463,0.3l-0.24,0.815c-0.252-0.144-0.647-0.275-1.223-0.275
		c-1.332,0-2.051,0.983-2.051,2.194c0,1.344,0.864,2.171,2.015,2.171c0.6,0,0.996-0.156,1.295-0.288L-257.328,257.399z"/>
	<path d="M-251.232,256.032c0,0.6,0.012,1.127,0.048,1.583h-0.936l-0.06-0.947h-0.024c-0.276,0.468-0.887,1.079-1.919,1.079
		c-0.911,0-2.003-0.504-2.003-2.543v-3.394h1.056v3.214c0,1.104,0.336,1.848,1.295,1.848c0.708,0,1.199-0.492,1.391-0.96
		c0.06-0.156,0.096-0.348,0.096-0.54v-3.562h1.056V256.032z"/>
	<path d="M-249.478,253.621c0-0.684-0.012-1.271-0.048-1.811h0.923l0.036,1.14h0.048c0.264-0.78,0.899-1.271,1.607-1.271
		c0.12,0,0.204,0.012,0.3,0.036v0.995c-0.108-0.024-0.216-0.036-0.359-0.036c-0.744,0-1.271,0.563-1.416,1.355
		c-0.024,0.144-0.048,0.312-0.048,0.491v3.095h-1.043V253.621z"/>
	<path d="M-240.42,254.665c0,2.146-1.487,3.082-2.89,3.082c-1.571,0-2.783-1.151-2.783-2.986c0-1.942,1.271-3.082,2.878-3.082
		C-241.547,251.678-240.42,252.889-240.42,254.665z M-245.026,254.724c0,1.271,0.732,2.231,1.763,2.231
		c1.007,0,1.763-0.948,1.763-2.255c0-0.983-0.492-2.231-1.739-2.231C-244.486,252.469-245.026,253.621-245.026,254.724z"/>
</g>
<rect x="-379.872" y="175.682" fill="#646464" width="12.503" height="12.504"/>
<rect x="-379.872" y="190.165" fill="#E1E1E1" width="12.503" height="12.504"/>
<rect x="-379.872" y="204.647" fill="#E0D4D7" width="12.503" height="12.503"/>
<rect x="-379.872" y="219.128" fill="#E6B32F" width="12.503" height="12.503"/>
<rect x="-379.872" y="233.611" fill="#58598E" width="12.503" height="12.503"/>
<rect x="-379.872" y="248.092" fill="#141E4E" width="12.503" height="12.503"/>
<rect x="-383.333" y="-406.273" width="76.667" height="76.667"/>
<path fill="#FFFFFF" d="M-322.461-365.917c6.572,0,11.918-5.346,11.918-11.917c0-6.572-5.346-11.918-11.918-11.918h-23.361v37.907
	l-29.313-37.922h-4.322l33.594,43.459l0.15,0.194h3.31v-40.22h19.942c4.687,0,8.499,3.813,8.499,8.499
	c0,4.686-3.813,8.499-8.499,8.499h-10.279l17.83,23.223h4.312l-15.207-19.804H-322.461z"/>
<path d="M-232.461-365.917c6.572,0,11.918-5.346,11.918-11.917c0-6.572-5.346-11.918-11.918-11.918h-23.361v37.907l-29.313-37.922
	h-4.322l33.594,43.459l0.15,0.194h3.31v-40.22h19.942c4.687,0,8.499,3.813,8.499,8.499c0,4.686-3.813,8.499-8.499,8.499h-10.279
	l17.83,23.223h4.312l-15.207-19.804H-232.461z"/>
<g>
</g>
<g>
</g>
<g>
</g>
<g>
</g>
<g>
</g>
<g>
</g>
</svg>
